<svg width="100" height="18" viewBox="0 0 100 18" fill="none" xmlns="http://www.w3.org/2000/svg">
<path d="M0 7.08309e-08C1.68464 0.000168706 3.34124 0.412401 4.81237 1.19752C6.2835 1.98264 7.52026 3.11455 8.40512 4.48568L10.0017 6.96713L11.5982 4.48568C12.4821 3.11438 13.7181 1.98226 15.1888 1.19708C16.6595 0.411907 18.3157 -0.000197256 20 7.08309e-08V18H14.8146V7.66066L10.0017 14.7073H9.89523L5.10893 7.70838V18H0V7.08309e-08Z" fill="#4F469C"/>
<path d="M21 13.83V13.7819C21 10.9882 23.4066 9.5385 27.0042 9.5385C28.2549 9.53818 29.4981 9.71524 30.6894 10.0633V9.83932C30.6894 8.44083 29.698 7.64399 27.6312 7.64399C26.1902 7.64295 24.7626 7.89726 23.4276 8.39283L22.3241 5.04864C24.2935 4.32444 26.4019 3.96859 28.5245 4.00217C31.2709 4.00217 33.1415 4.57501 34.3571 5.64707C35.5201 6.64553 36 8.04401 36 9.93852V17.9966H32.532C32.0396 17.9966 31.5674 17.8179 31.2192 17.4998C30.871 17.1817 30.6754 16.7503 30.6754 16.3005C30.1011 16.8604 29.4023 17.3015 28.6258 17.5941C27.8494 17.8866 27.0134 18.0239 26.174 17.9966C23.2349 17.9966 21 16.5245 21 13.83ZM30.7419 12.7963V12.1563C30.0711 11.9218 29.3584 11.8035 28.6401 11.8074C27.0848 11.8074 26.188 12.4795 26.188 13.4779V13.5259C26.188 14.4508 26.9797 14.998 28.0866 14.998C29.6385 15.0364 30.7419 14.1564 30.7419 12.7963Z" fill="#4F469C"/>
<path d="M38 0C39.2655 -1.09749e-06 40.4792 0.513865 41.3746 1.42873C42.27 2.3436 42.7738 3.58465 42.7755 4.87931V8.74395L46.4721 4.09048H51.8725L47.1499 9.66955L52 18H46.7457L44.0067 13.2702L42.763 14.7333V18H38V0Z" fill="#4F469C"/>
<path d="M52 13.83V13.7819C52 10.9882 54.41 9.5385 58.0126 9.5385C59.2628 9.53885 60.5053 9.71589 61.696 10.0633V9.83932C61.696 8.44083 60.7067 7.64399 58.6335 7.64399C57.1905 7.64295 55.7609 7.89726 54.424 8.39283L53.305 5.04864C55.2771 4.32444 57.3884 3.96859 59.514 4.00217C62.2643 4.00217 64.1375 4.57501 65.3548 5.64707C66.5194 6.64553 67 8.04401 67 9.93852V17.9966H63.5271C63.034 17.9966 62.5611 17.8179 62.2125 17.4998C61.8638 17.1817 61.6679 16.7503 61.6679 16.3005C61.0929 16.8604 60.393 17.3015 59.6155 17.5941C58.8379 17.8866 58.0007 18.0239 57.1602 17.9966C54.2416 17.9966 52 16.5245 52 13.83ZM61.7556 12.7963V12.1563C61.0839 11.9218 60.3701 11.8035 59.6508 11.8074C58.0933 11.8074 57.1953 12.4795 57.1953 13.4779V13.5259C57.1953 14.4508 57.9916 14.998 59.0966 14.998C60.6471 15.0364 61.7556 14.1564 61.7556 12.7963Z" fill="#4F469C"/>
<path d="M68 4H73.3173V6.24051C74.297 5.10105 75.6956 4 77.8523 4C81.0683 4 83 5.92044 83 9.03795V18H77.6827V10.5807C77.6827 9.08596 76.8172 8.27618 75.5571 8.27618C74.297 8.27618 73.3173 9.08596 73.3173 10.5807V17.9968H68V4Z" fill="#4F469C"/>
<path d="M85 1.90944e-05H95.4935C96.0654 -0.00165524 96.632 0.106799 97.1609 0.319165C97.6898 0.531531 98.1705 0.843635 98.5755 1.23759C98.9805 1.63154 99.3019 2.0996 99.5211 2.61494C99.7404 3.13028 99.8533 3.68276 99.8533 4.24074H90.0706V6.96714H94.8967C95.4263 6.96714 95.9507 7.06895 96.4399 7.26676C96.9291 7.46456 97.3735 7.75449 97.7478 8.11996C98.1221 8.48542 98.419 8.91928 98.6213 9.39671C98.8237 9.87414 98.9276 10.3858 98.9272 10.9024H90.0739V13.7656H95.637C96.2085 13.764 96.7747 13.8722 97.3034 14.0841C97.832 14.2961 98.3127 14.6075 98.7178 15.0008C99.123 15.394 99.4448 15.8613 99.6648 16.3759C99.8848 16.8905 99.9987 17.4424 100 18H85V1.90944e-05Z" fill="#4F469C"/>
</svg>
